<svg width="11" height="11" viewBox="0 0 11 11" fill="none" xmlns="http://www.w3.org/2000/svg">
<g clip-path="url(#clip0_157_3188)">
<path d="M3.50043 1.25H0.500477C0.224332 1.25 0.000488281 1.47384 0.000488281 1.74999V4.74994C0.000488281 5.02608 0.224332 5.24993 0.500477 5.24993H3.50043C3.77657 5.24993 4.00042 5.02608 4.00042 4.74994V1.74999C4.00042 1.47384 3.77657 1.25 3.50043 1.25ZM3.00044 4.24995H1.00046V2.24998H3.00044V4.24995Z" fill="#BB9B75"/>
<path d="M10.5 2.75H5.50011C5.22397 2.75 5.00012 2.97384 5.00012 3.24999C5.00012 3.52613 5.22397 3.74998 5.50011 3.74998H10.5C10.7762 3.74998 11 3.52613 11 3.24999C11 2.97387 10.7762 2.75 10.5 2.75Z" fill="#BB9B75"/>
<path d="M10.5 7.75H5.50011C5.22397 7.75 5.00012 7.97386 5.00012 8.24999C5.00012 8.52611 5.22397 8.74998 5.50011 8.74998H10.5C10.7762 8.74998 11 8.52611 11 8.24999C11 7.97386 10.7762 7.75 10.5 7.75Z" fill="#BB9B75"/>
<path d="M3.15012 6.89454L1.48565 8.53902L0.859667 7.88903C0.667616 7.69049 0.350973 7.68522 0.152424 7.87728C-0.0461242 8.06933 -0.0513868 8.38597 0.140665 8.58452L1.11764 9.6C1.21081 9.69505 1.33804 9.74904 1.47114 9.75H1.47714C1.60823 9.74958 1.73393 9.69769 1.82714 9.6055L3.85011 7.60553C4.0594 7.42541 4.08305 7.1097 3.90293 6.90041C3.72281 6.69112 3.4071 6.66747 3.19781 6.84759C3.1809 6.86216 3.16496 6.87784 3.15012 6.89454Z" fill="#BB9B75"/>
</g>
<defs>
<clipPath id="clip0_157_3188">
<rect width="11" height="11" fill="white"/>
</clipPath>
</defs>
</svg>
