<svg width="13" height="11" viewBox="0 0 13 11" fill="none" xmlns="http://www.w3.org/2000/svg">
<path d="M11.4706 9.94119H12.6176C12.8288 9.94119 13 10.1124 13 10.3235C13 10.5347 12.8288 10.7059 12.6176 10.7059H0.382357C0.171184 10.7059 0 10.5347 0 10.3235C0 10.1124 0.171184 9.94119 0.382357 9.94119H1.5294V3.44119C1.5294 3.23002 1.70059 3.05883 1.91176 3.05883H5.35293C5.5641 3.05883 5.73529 3.23002 5.73529 3.44119V9.94119H7.26469V0.382357C7.26469 0.171184 7.43587 0 7.64705 0H11.0882C11.2994 0 11.4706 0.171184 11.4706 0.382357V9.94119H11.4706ZM2.29412 3.82355V9.94119H4.9706V3.82355H2.29412ZM8.0294 0.764715V9.94119H10.7059V0.764715H8.0294Z" fill="#BB9B75"/>
</svg>
