<svg width="550" height="23" viewBox="0 0 550 23" fill="none" xmlns="http://www.w3.org/2000/svg">
<path d="M30.9619 15L34.085 10.1123L31.1143 5.49121H32.3838L33.7803 7.78906C33.8988 7.98372 34.068 8.27148 34.2881 8.65234C34.5166 9.0332 34.652 9.26172 34.6943 9.33789H34.7451C34.8551 9.14323 35.016 8.8724 35.2275 8.52539C35.4476 8.16992 35.5999 7.92448 35.6846 7.78906L37.0811 5.49121H38.3506L35.3545 10.1123L38.5029 15H37.2588L35.7607 12.6133C35.6423 12.4186 35.4603 12.1182 35.2148 11.7119C34.9694 11.2972 34.8128 11.0348 34.7451 10.9248H34.6943C34.3473 11.5257 34.013 12.0885 33.6914 12.6133L32.2061 15H30.9619ZM40.0264 11.585C40.0264 12.4482 40.2253 13.1338 40.623 13.6416C41.0208 14.1494 41.516 14.4033 42.1084 14.4033C42.6924 14.4033 43.1833 14.1494 43.5811 13.6416C43.9873 13.1338 44.1904 12.4482 44.1904 11.585C44.1904 10.7048 43.9873 10.015 43.5811 9.51562C43.1748 9.01628 42.6839 8.7666 42.1084 8.7666C41.5244 8.7666 41.0293 9.01628 40.623 9.51562C40.2253 10.015 40.0264 10.7048 40.0264 11.585ZM39.0361 11.585C39.0361 10.5439 39.3027 9.67643 39.8359 8.98242C40.3776 8.28841 41.1351 7.94141 42.1084 7.94141C43.0732 7.94141 43.8265 8.28841 44.3682 8.98242C44.9098 9.67643 45.1807 10.5439 45.1807 11.585C45.1807 12.0251 45.1214 12.4525 45.0029 12.8672C44.8929 13.2819 44.7194 13.6712 44.4824 14.0352C44.2539 14.3906 43.9323 14.6784 43.5176 14.8984C43.1113 15.1185 42.6416 15.2285 42.1084 15.2285C41.5837 15.2285 41.1139 15.1227 40.6992 14.9111C40.293 14.6911 39.9714 14.4033 39.7344 14.0479C39.5059 13.6839 39.3324 13.2946 39.2139 12.8799C39.0954 12.4652 39.0361 12.0335 39.0361 11.585ZM46.6279 10.3408V8.16992H47.6055V10.3408C47.6055 11.348 48.126 11.8516 49.167 11.8516C49.6494 11.8516 50.0853 11.7035 50.4746 11.4072C50.8724 11.111 51.0713 10.7428 51.0713 10.3027V8.16992H52.0361V15H51.0713V11.7246H51.0586C50.8893 12.0039 50.6227 12.2367 50.2588 12.4229C49.9033 12.609 49.4971 12.7021 49.04 12.7021C48.6084 12.7021 48.2191 12.6344 47.8721 12.499C47.5251 12.3551 47.2288 12.1012 46.9834 11.7373C46.7464 11.3649 46.6279 10.8994 46.6279 10.3408ZM53.1533 8.16992H54.2959L55.7051 12.1689C55.9167 12.7614 56.1071 13.3369 56.2764 13.8955H56.3271C56.4541 13.4808 56.6403 12.9053 56.8857 12.1689L58.2314 8.16992H59.3486L56.4033 16.1426C56.1494 16.8197 55.8532 17.2936 55.5146 17.5645C55.1846 17.8438 54.7783 17.9834 54.2959 17.9834H53.915V17.1709H54.1436C54.4652 17.1709 54.736 17.0778 54.9561 16.8916C55.1846 16.7054 55.3877 16.3711 55.5654 15.8887L55.8193 15.0889L53.1533 8.16992ZM63.627 15V8.16992H68.9844V15H68.0068V8.99512H64.6045V15H63.627ZM71.5488 11.585C71.5488 12.4482 71.7477 13.1338 72.1455 13.6416C72.5433 14.1494 73.0384 14.4033 73.6309 14.4033C74.2148 14.4033 74.7057 14.1494 75.1035 13.6416C75.5098 13.1338 75.7129 12.4482 75.7129 11.585C75.7129 10.7048 75.5098 10.015 75.1035 9.51562C74.6973 9.01628 74.2064 8.7666 73.6309 8.7666C73.0469 8.7666 72.5518 9.01628 72.1455 9.51562C71.7477 10.015 71.5488 10.7048 71.5488 11.585ZM70.5586 11.585C70.5586 10.5439 70.8252 9.67643 71.3584 8.98242C71.9001 8.28841 72.6576 7.94141 73.6309 7.94141C74.5957 7.94141 75.349 8.28841 75.8906 8.98242C76.4323 9.67643 76.7031 10.5439 76.7031 11.585C76.7031 12.0251 76.6439 12.4525 76.5254 12.8672C76.4154 13.2819 76.2419 13.6712 76.0049 14.0352C75.7764 14.3906 75.4548 14.6784 75.04 14.8984C74.6338 15.1185 74.1641 15.2285 73.6309 15.2285C73.1061 15.2285 72.6364 15.1227 72.2217 14.9111C71.8154 14.6911 71.4938 14.4033 71.2568 14.0479C71.0283 13.6839 70.8548 13.2946 70.7363 12.8799C70.6178 12.4652 70.5586 12.0335 70.5586 11.585ZM77.5791 14.1621H78.2266C79.5046 12.5202 80.1478 10.5228 80.1562 8.16992H84.2441V14.1621H85.1963V17.6025H84.1934V15H78.5693V17.6025H77.5791V14.1621ZM79.4072 14.1621H83.2412V8.99512H81.1465C81.1211 9.77376 80.9645 10.637 80.6768 11.585C80.389 12.5329 79.9658 13.3919 79.4072 14.1621ZM86.5166 15V8.16992H91.874V15H90.8965V8.99512H87.4941V15H86.5166ZM93.9053 15V8.16992H94.8828V11.75C94.8828 11.9785 94.8617 12.5583 94.8193 13.4893H94.8701L95.5049 12.5498L98.4121 8.16992H99.5039V15H98.5264V11.2803C98.5264 10.6032 98.5433 10.0488 98.5771 9.61719H98.5518L97.9932 10.5059L94.9971 15H93.9053ZM101.078 11.585C101.078 10.5016 101.353 9.62565 101.903 8.95703C102.453 8.27995 103.194 7.94141 104.125 7.94141C104.734 7.94141 105.255 8.11914 105.687 8.47461C106.127 8.82161 106.419 9.23633 106.562 9.71875L105.725 9.95996C105.598 9.62142 105.39 9.33789 105.103 9.10938C104.823 8.88086 104.497 8.7666 104.125 8.7666C103.499 8.7666 102.999 9.0332 102.627 9.56641C102.255 10.0996 102.068 10.7725 102.068 11.585C102.068 12.4482 102.263 13.1338 102.652 13.6416C103.042 14.1494 103.533 14.4033 104.125 14.4033C104.523 14.4033 104.882 14.2764 105.204 14.0225C105.534 13.7601 105.767 13.4596 105.902 13.1211L106.74 13.3877C106.562 13.8955 106.237 14.3314 105.763 14.6953C105.297 15.0508 104.751 15.2285 104.125 15.2285C103.219 15.2285 102.483 14.8984 101.916 14.2383C101.357 13.5781 101.078 12.6937 101.078 11.585ZM108.568 13.248C108.568 13.5697 108.704 13.8447 108.975 14.0732C109.245 14.2933 109.618 14.4033 110.092 14.4033C110.693 14.4033 111.205 14.2087 111.628 13.8193C112.06 13.43 112.275 12.9349 112.275 12.334V11.3818C111.903 11.4749 111.311 11.585 110.498 11.7119C109.838 11.8304 109.351 12.0124 109.038 12.2578C108.725 12.5033 108.568 12.8333 108.568 13.248ZM107.578 13.3242C107.578 12.0547 108.56 11.2676 110.523 10.9629C111.404 10.819 111.988 10.7005 112.275 10.6074V10.2139C112.275 9.79069 112.123 9.43945 111.818 9.16016C111.514 8.88086 111.082 8.74121 110.523 8.74121C110.117 8.74121 109.724 8.83854 109.343 9.0332C108.97 9.2194 108.653 9.47331 108.391 9.79492L107.756 9.26172C108.094 8.8724 108.501 8.55501 108.975 8.30957C109.457 8.06413 109.965 7.94141 110.498 7.94141C112.326 7.94141 113.24 8.83431 113.24 10.6201V15H112.301V13.8828C112.165 14.2467 111.886 14.5641 111.463 14.835C111.04 15.0973 110.54 15.2285 109.965 15.2285C109.212 15.2285 108.623 15.0508 108.2 14.6953C107.785 14.3398 107.578 13.8828 107.578 13.3242ZM114.472 8.99512V8.16992H119.931V8.99512H117.696V15H116.719V8.99512H114.472ZM121.213 15V8.16992H122.203V10.9502H123.815C124.628 10.9502 125.237 11.1279 125.644 11.4834C126.058 11.8304 126.266 12.3298 126.266 12.9814C126.266 13.5739 126.062 14.0605 125.656 14.4414C125.258 14.8138 124.683 15 123.93 15H121.213ZM122.203 14.1621H123.866C124.806 14.1621 125.275 13.7643 125.275 12.9688C125.275 12.1732 124.793 11.7754 123.828 11.7754H122.203V14.1621ZM127.383 11.585C127.383 10.5016 127.658 9.62565 128.208 8.95703C128.758 8.27995 129.499 7.94141 130.43 7.94141C131.039 7.94141 131.56 8.11914 131.991 8.47461C132.431 8.82161 132.723 9.23633 132.867 9.71875L132.029 9.95996C131.902 9.62142 131.695 9.33789 131.407 9.10938C131.128 8.88086 130.802 8.7666 130.43 8.7666C129.803 8.7666 129.304 9.0332 128.932 9.56641C128.559 10.0996 128.373 10.7725 128.373 11.585C128.373 12.4482 128.568 13.1338 128.957 13.6416C129.346 14.1494 129.837 14.4033 130.43 14.4033C130.827 14.4033 131.187 14.2764 131.509 14.0225C131.839 13.7601 132.072 13.4596 132.207 13.1211L133.045 13.3877C132.867 13.8955 132.541 14.3314 132.067 14.6953C131.602 15.0508 131.056 15.2285 130.43 15.2285C129.524 15.2285 128.788 14.8984 128.221 14.2383C127.662 13.5781 127.383 12.6937 127.383 11.585ZM135.038 10.1123C135.038 10.4847 135.157 10.7725 135.394 10.9756C135.631 11.1787 135.982 11.2803 136.447 11.2803H138.352V8.99512H136.511C136.02 8.99512 135.652 9.10091 135.406 9.3125C135.161 9.51562 135.038 9.78223 135.038 10.1123ZM133.629 15C133.984 14.3906 134.247 13.7305 134.416 13.0195C134.501 12.681 134.598 12.4144 134.708 12.2197C134.826 12.0251 135.013 11.86 135.267 11.7246C134.463 11.4199 134.061 10.8656 134.061 10.0615C134.061 9.51986 134.259 9.07129 134.657 8.71582C135.055 8.35189 135.618 8.16992 136.346 8.16992H139.329V15H138.352V12.1182H136.473C136.126 12.1182 135.872 12.2155 135.711 12.4102C135.55 12.6048 135.432 12.8714 135.355 13.21C135.152 14.014 134.928 14.6107 134.683 15H133.629ZM144.534 15V8.16992H145.512V11.0645H149.092V8.16992H150.057V15H149.092V11.8896H145.512V15H144.534ZM152.596 13.248C152.596 13.5697 152.731 13.8447 153.002 14.0732C153.273 14.2933 153.645 14.4033 154.119 14.4033C154.72 14.4033 155.232 14.2087 155.655 13.8193C156.087 13.43 156.303 12.9349 156.303 12.334V11.3818C155.93 11.4749 155.338 11.585 154.525 11.7119C153.865 11.8304 153.379 12.0124 153.065 12.2578C152.752 12.5033 152.596 12.8333 152.596 13.248ZM151.605 13.3242C151.605 12.0547 152.587 11.2676 154.551 10.9629C155.431 10.819 156.015 10.7005 156.303 10.6074V10.2139C156.303 9.79069 156.15 9.43945 155.846 9.16016C155.541 8.88086 155.109 8.74121 154.551 8.74121C154.145 8.74121 153.751 8.83854 153.37 9.0332C152.998 9.2194 152.68 9.47331 152.418 9.79492L151.783 9.26172C152.122 8.8724 152.528 8.55501 153.002 8.30957C153.484 8.06413 153.992 7.94141 154.525 7.94141C156.354 7.94141 157.268 8.83431 157.268 10.6201V15H156.328V13.8828C156.193 14.2467 155.913 14.5641 155.49 14.835C155.067 15.0973 154.568 15.2285 153.992 15.2285C153.239 15.2285 152.651 15.0508 152.228 14.6953C151.813 14.3398 151.605 13.8828 151.605 13.3242ZM162.409 15V8.16992H163.387V11.0645H166.967V8.16992H167.932V15H166.967V11.8896H163.387V15H162.409ZM170.496 11.585C170.496 12.4482 170.695 13.1338 171.093 13.6416C171.491 14.1494 171.986 14.4033 172.578 14.4033C173.162 14.4033 173.653 14.1494 174.051 13.6416C174.457 13.1338 174.66 12.4482 174.66 11.585C174.66 10.7048 174.457 10.015 174.051 9.51562C173.645 9.01628 173.154 8.7666 172.578 8.7666C171.994 8.7666 171.499 9.01628 171.093 9.51562C170.695 10.015 170.496 10.7048 170.496 11.585ZM169.506 11.585C169.506 10.5439 169.772 9.67643 170.306 8.98242C170.847 8.28841 171.605 7.94141 172.578 7.94141C173.543 7.94141 174.296 8.28841 174.838 8.98242C175.38 9.67643 175.65 10.5439 175.65 11.585C175.65 12.0251 175.591 12.4525 175.473 12.8672C175.363 13.2819 175.189 13.6712 174.952 14.0352C174.724 14.3906 174.402 14.6784 173.987 14.8984C173.581 15.1185 173.111 15.2285 172.578 15.2285C172.053 15.2285 171.584 15.1227 171.169 14.9111C170.763 14.6911 170.441 14.4033 170.204 14.0479C169.976 13.6839 169.802 13.2946 169.684 12.8799C169.565 12.4652 169.506 12.0335 169.506 11.585ZM177.225 15V8.16992H180.106C180.851 8.16992 181.418 8.33919 181.808 8.67773C182.205 9.01628 182.404 9.45215 182.404 9.98535C182.404 10.6117 182.083 11.0814 181.439 11.3945C181.812 11.5215 182.112 11.7246 182.341 12.0039C182.578 12.2747 182.696 12.6133 182.696 13.0195C182.696 13.5527 182.493 14.0182 182.087 14.416C181.681 14.8053 181.139 15 180.462 15H177.225ZM178.202 14.1621H180.284C180.699 14.1621 181.037 14.0648 181.3 13.8701C181.562 13.6755 181.693 13.3962 181.693 13.0322C181.693 12.6852 181.562 12.4059 181.3 12.1943C181.046 11.9743 180.695 11.8643 180.246 11.8643H178.202V14.1621ZM178.202 11.1025H180.005C180.428 11.1025 180.767 11.0137 181.021 10.8359C181.283 10.6582 181.414 10.3916 181.414 10.0361C181.414 9.34212 180.949 8.99512 180.018 8.99512H178.202V11.1025ZM184.804 11.585C184.804 12.4482 185.003 13.1338 185.4 13.6416C185.798 14.1494 186.293 14.4033 186.886 14.4033C187.47 14.4033 187.961 14.1494 188.358 13.6416C188.765 13.1338 188.968 12.4482 188.968 11.585C188.968 10.7048 188.765 10.015 188.358 9.51562C187.952 9.01628 187.461 8.7666 186.886 8.7666C186.302 8.7666 185.807 9.01628 185.4 9.51562C185.003 10.015 184.804 10.7048 184.804 11.585ZM183.813 11.585C183.813 10.5439 184.08 9.67643 184.613 8.98242C185.155 8.28841 185.912 7.94141 186.886 7.94141C187.851 7.94141 188.604 8.28841 189.146 8.98242C189.687 9.67643 189.958 10.5439 189.958 11.585C189.958 12.0251 189.899 12.4525 189.78 12.8672C189.67 13.2819 189.497 13.6712 189.26 14.0352C189.031 14.3906 188.71 14.6784 188.295 14.8984C187.889 15.1185 187.419 15.2285 186.886 15.2285C186.361 15.2285 185.891 15.1227 185.477 14.9111C185.07 14.6911 184.749 14.4033 184.512 14.0479C184.283 13.6839 184.11 13.2946 183.991 12.8799C183.873 12.4652 183.813 12.0335 183.813 11.585ZM191.075 11.585C191.075 10.5016 191.35 9.62565 191.9 8.95703C192.451 8.27995 193.191 7.94141 194.122 7.94141C194.731 7.94141 195.252 8.11914 195.684 8.47461C196.124 8.82161 196.416 9.23633 196.56 9.71875L195.722 9.95996C195.595 9.62142 195.387 9.33789 195.1 9.10938C194.82 8.88086 194.494 8.7666 194.122 8.7666C193.496 8.7666 192.996 9.0332 192.624 9.56641C192.252 10.0996 192.065 10.7725 192.065 11.585C192.065 12.4482 192.26 13.1338 192.649 13.6416C193.039 14.1494 193.53 14.4033 194.122 14.4033C194.52 14.4033 194.88 14.2764 195.201 14.0225C195.531 13.7601 195.764 13.4596 195.899 13.1211L196.737 13.3877C196.56 13.8955 196.234 14.3314 195.76 14.6953C195.294 15.0508 194.748 15.2285 194.122 15.2285C193.216 15.2285 192.48 14.8984 191.913 14.2383C191.354 13.5781 191.075 12.6937 191.075 11.585ZM197.321 8.99512V8.16992H202.78V8.99512H200.546V15H199.568V8.99512H197.321ZM204.062 15V8.16992H205.04V11.75C205.04 11.9785 205.019 12.5583 204.977 13.4893H205.027L205.662 12.5498L208.569 8.16992H209.661V15H208.684V11.2803C208.684 10.6032 208.701 10.0488 208.734 9.61719H208.709L208.15 10.5059L205.154 15H204.062ZM211.883 15.127V13.667H213.482V15.127H211.883ZM213.14 12.3594H212.238L212.124 5.47852H213.254L213.14 12.3594Z" fill="#363537"/>
<rect x="0.5" y="0.5" width="21" height="21" rx="1.5" fill="white" stroke="#EAEAEA"/>
<g clip-path="url(#clip0_154_7726)">
<path d="M14.8141 8.30692C14.5666 8.05907 14.1647 8.05923 13.9168 8.30692L9.8783 12.3456L8.08335 10.5507C7.8355 10.3028 7.43374 10.3028 7.18589 10.5507C6.93804 10.7985 6.93804 11.2003 7.18589 11.4481L9.42947 13.6917C9.55332 13.8156 9.71571 13.8776 9.87812 13.8776C10.0405 13.8776 10.2031 13.8157 10.3269 13.6917L14.8141 9.20437C15.062 8.95669 15.062 8.55476 14.8141 8.30692Z" fill="#DD6750"/>
</g>
<defs>
<clipPath id="clip0_154_7726">
<rect width="8" height="8" fill="white" transform="translate(7 7)"/>
</clipPath>
</defs>
</svg>
