<svg width="28" height="23" viewBox="0 0 28 23" fill="none" xmlns="http://www.w3.org/2000/svg">
<path d="M24.7059 21.3571H27.1765C27.6313 21.3571 28 21.7249 28 22.1786C28 22.6322 27.6313 23 27.1765 23H0.823539C0.368703 23 0 22.6322 0 22.1786C0 21.7249 0.368703 21.3571 0.823539 21.3571H3.2941V7.39287C3.2941 6.9392 3.6628 6.57144 4.11764 6.57144H11.5294C11.9842 6.57144 12.3529 6.9392 12.3529 7.39287V21.3571H15.647V0.821436C15.647 0.367762 16.0157 0 16.4706 0H23.8823C24.3371 0 24.7058 0.367762 24.7058 0.821436V21.3571H24.7059ZM4.94118 8.21431V21.3571H10.7059V8.21431H4.94118ZM17.2941 1.64287V21.3571H23.0588V1.64287H17.2941Z" fill="#BB9B75"/>
</svg>
