<svg width="520" height="633" viewBox="0 0 520 633" fill="none" xmlns="http://www.w3.org/2000/svg">
<g filter="url(#filter0_d_154_8820)">
<circle cx="58.5" cy="564.5" r="38.5" fill="white"/>
</g>
<circle cx="58" cy="565" r="32" fill="#F8F8F8"/>
<path d="M52 564.444C52 564.102 52.1321 563.76 52.3956 563.499L60.6931 555.288C61.2209 554.766 62.0767 554.766 62.6043 555.288C63.1319 555.81 63.1319 556.657 62.6043 557.179L55.2622 564.444L62.604 571.709C63.1316 572.231 63.1316 573.078 62.604 573.6C62.0764 574.123 61.2207 574.123 60.6928 573.6L52.3953 565.389C52.1318 565.128 52 564.786 52 564.444Z" fill="#BB9B75"/>
<path d="M51 7.77745C51 8.02213 51.1321 8.26677 51.3956 8.45332L59.6931 14.3235C60.2209 14.6969 61.0767 14.6969 61.6043 14.3235C62.1319 13.9502 62.1319 13.3449 61.6043 12.9714L54.2622 7.77745L61.604 2.58345C62.1316 2.21003 62.1316 1.60478 61.604 1.23155C61.0764 0.857949 60.2207 0.857949 59.6928 1.23155L51.3953 7.10159C51.1318 7.28823 51 7.53287 51 7.77745Z" fill="#BB9B75"/>
<g filter="url(#filter1_d_154_8820)">
<circle cx="461.5" cy="564.5" r="38.5" transform="rotate(180 461.5 564.5)" fill="white"/>
</g>
<circle cx="462" cy="564" r="32" transform="rotate(180 462 564)" fill="#F8F8F8"/>
<path d="M469 565.444C469 565.102 468.868 564.76 468.604 564.499L460.307 556.288C459.779 555.766 458.923 555.766 458.396 556.288C457.868 556.81 457.868 557.657 458.396 558.179L465.738 565.444L458.396 572.709C457.868 573.231 457.868 574.078 458.396 574.6C458.924 575.123 459.779 575.123 460.307 574.6L468.605 566.389C468.868 566.128 469 565.786 469 565.444Z" fill="#BB9B75"/>
<path d="M117 564.5C117 543.237 134.237 526 155.5 526H364.5C385.763 526 403 543.237 403 564.5V564.5C403 585.763 385.763 603 364.5 603H155.5C134.237 603 117 585.763 117 564.5V564.5Z" fill="#F8F8F8"/>
<path d="M225 564.5C225 547.655 238.655 534 255.5 534C272.345 534 286 547.655 286 564.5C286 581.345 272.345 595 255.5 595C238.655 595 225 581.345 225 564.5Z" fill="white"/>
<path d="M158.238 561.191V559.434H158.871C160.781 559.434 161.736 558.73 161.736 557.324V556.973H163.74V571.158H161.367V561.191H158.238Z" fill="#303030"/>
<path d="M202.518 560.523C202.787 559.363 203.291 558.449 204.029 557.781C204.768 557.113 205.734 556.779 206.93 556.779C208.184 556.779 209.209 557.143 210.006 557.869C210.803 558.584 211.201 559.557 211.201 560.787C211.201 561.584 211.02 562.311 210.656 562.967C210.293 563.611 209.766 564.262 209.074 564.918C208.945 565.047 208.611 565.375 208.072 565.902C207.533 566.43 207.164 566.799 206.965 567.01C206.777 567.209 206.525 567.514 206.209 567.924C205.904 568.322 205.658 568.715 205.471 569.102H211.166V571H202.658C202.658 570.449 202.746 569.898 202.922 569.348C203.109 568.785 203.32 568.299 203.555 567.889C203.801 567.479 204.146 567.016 204.592 566.5C205.049 565.973 205.424 565.562 205.717 565.27C206.021 564.977 206.443 564.572 206.982 564.057C207.111 563.939 207.205 563.852 207.264 563.793C208.295 562.809 208.811 561.789 208.811 560.734C208.811 560.09 208.635 559.586 208.283 559.223C207.932 558.859 207.469 558.678 206.895 558.678C205.664 558.678 204.861 559.486 204.486 561.104L202.518 560.523Z" fill="#303030"/>
<path d="M299.42 571V568.293H302.373V571H299.42ZM306.442 571V568.293H309.395V571H306.442ZM313.644 571V568.293H316.597V571H313.644Z" fill="#303030"/>
<path d="M250.254 568.188L252.117 567.502C252.668 568.779 253.559 569.418 254.789 569.418C255.457 569.418 256.02 569.213 256.477 568.803C256.934 568.381 257.162 567.789 257.162 567.027C257.162 566.336 256.91 565.773 256.406 565.34C255.902 564.906 255.264 564.689 254.49 564.689C254.068 564.689 253.646 564.713 253.225 564.76V562.861C253.529 562.885 253.928 562.896 254.42 562.896C255.041 562.896 255.568 562.703 256.002 562.316C256.447 561.93 256.67 561.396 256.67 560.717C256.67 560.119 256.482 559.633 256.107 559.258C255.732 558.871 255.258 558.678 254.684 558.678C253.676 558.678 252.938 559.346 252.469 560.682L250.57 560.084C250.816 559.111 251.309 558.32 252.047 557.711C252.797 557.09 253.723 556.779 254.824 556.779C256.113 556.779 257.139 557.131 257.9 557.834C258.662 558.525 259.043 559.41 259.043 560.488C259.043 561.203 258.855 561.842 258.48 562.404C258.117 562.967 257.666 563.389 257.127 563.67C257.771 563.893 258.334 564.291 258.814 564.865C259.307 565.428 259.553 566.148 259.553 567.027C259.553 568.375 259.119 569.43 258.252 570.191C257.396 570.941 256.248 571.316 254.807 571.316C253.646 571.316 252.662 571.012 251.854 570.402C251.057 569.793 250.523 569.055 250.254 568.188Z" fill="#BB9B75"/>
<path d="M354.465 561.191V559.434H355.098C357.008 559.434 357.963 558.73 357.963 557.324V556.973H359.967V571.158H357.594V561.191H354.465ZM364.291 560.523C364.561 559.363 365.064 558.449 365.803 557.781C366.541 557.113 367.508 556.779 368.703 556.779C369.957 556.779 370.982 557.143 371.779 557.869C372.576 558.584 372.975 559.557 372.975 560.787C372.975 561.584 372.793 562.311 372.43 562.967C372.066 563.611 371.539 564.262 370.848 564.918C370.719 565.047 370.385 565.375 369.846 565.902C369.307 566.43 368.938 566.799 368.738 567.01C368.551 567.209 368.299 567.514 367.982 567.924C367.678 568.322 367.432 568.715 367.244 569.102H372.939V571H364.432C364.432 570.449 364.52 569.898 364.695 569.348C364.883 568.785 365.094 568.299 365.328 567.889C365.574 567.479 365.92 567.016 366.365 566.5C366.822 565.973 367.197 565.562 367.49 565.27C367.795 564.977 368.217 564.572 368.756 564.057C368.885 563.939 368.979 563.852 369.037 563.793C370.068 562.809 370.584 561.789 370.584 560.734C370.584 560.09 370.408 559.586 370.057 559.223C369.705 558.859 369.242 558.678 368.668 558.678C367.438 558.678 366.635 559.486 366.26 561.104L364.291 560.523Z" fill="#BB9B75"/>
<defs>
<filter id="filter0_d_154_8820" x="0" y="516" width="117" height="117" filterUnits="userSpaceOnUse" color-interpolation-filters="sRGB">
<feFlood flood-opacity="0" result="BackgroundImageFix"/>
<feColorMatrix in="SourceAlpha" type="matrix" values="0 0 0 0 0 0 0 0 0 0 0 0 0 0 0 0 0 0 127 0" result="hardAlpha"/>
<feOffset dy="10"/>
<feGaussianBlur stdDeviation="10"/>
<feComposite in2="hardAlpha" operator="out"/>
<feColorMatrix type="matrix" values="0 0 0 0 0 0 0 0 0 0 0 0 0 0 0 0 0 0 0.16 0"/>
<feBlend mode="normal" in2="BackgroundImageFix" result="effect1_dropShadow_154_8820"/>
<feBlend mode="normal" in="SourceGraphic" in2="effect1_dropShadow_154_8820" result="shape"/>
</filter>
<filter id="filter1_d_154_8820" x="403" y="516" width="117" height="117" filterUnits="userSpaceOnUse" color-interpolation-filters="sRGB">
<feFlood flood-opacity="0" result="BackgroundImageFix"/>
<feColorMatrix in="SourceAlpha" type="matrix" values="0 0 0 0 0 0 0 0 0 0 0 0 0 0 0 0 0 0 127 0" result="hardAlpha"/>
<feOffset dy="10"/>
<feGaussianBlur stdDeviation="10"/>
<feComposite in2="hardAlpha" operator="out"/>
<feColorMatrix type="matrix" values="0 0 0 0 0 0 0 0 0 0 0 0 0 0 0 0 0 0 0.16 0"/>
<feBlend mode="normal" in2="BackgroundImageFix" result="effect1_dropShadow_154_8820"/>
<feBlend mode="normal" in="SourceGraphic" in2="effect1_dropShadow_154_8820" result="shape"/>
</filter>
</defs>
</svg>
