<svg width="21" height="21" viewBox="0 0 21 21" fill="none" xmlns="http://www.w3.org/2000/svg">
<path d="M17.2578 2.73948C16.3406 1.82443 15.0979 1.31055 13.8023 1.31055C12.5067 1.31055 11.264 1.82443 10.3468 2.73948L3.11469 9.97173C2.99866 10.0912 2.93429 10.2515 2.9355 10.418C2.93671 10.5845 3.00339 10.7438 3.12114 10.8616C3.23889 10.9793 3.39824 11.046 3.56476 11.0472C3.73127 11.0484 3.89157 10.984 4.011 10.868L11.2431 3.63577C14.7739 0.379934 19.623 5.227 16.3616 8.75452L7.3393 17.7768C5.22303 19.7705 2.22837 16.7858 4.22567 14.6633L13.2488 5.64006C13.3966 5.497 13.5948 5.41779 13.8005 5.4195C14.0063 5.42122 14.2031 5.50373 14.3485 5.64923C14.494 5.79473 14.5764 5.99158 14.5781 6.19731C14.5797 6.40304 14.5004 6.60118 14.3573 6.749L7.12713 13.9791C7.01119 14.0985 6.9469 14.2588 6.94815 14.4252C6.9494 14.5917 7.01608 14.751 7.13379 14.8687C7.2515 14.9864 7.4108 15.0531 7.57726 15.0543C7.74372 15.0556 7.90399 14.9913 8.02344 14.8753L15.2537 7.64526C17.1065 5.67276 14.3322 2.88576 12.3525 4.74379L3.32933 13.7671C3.00638 14.0885 2.75041 14.4709 2.57624 14.8919C2.40207 15.313 2.31316 15.7644 2.31466 16.2201C2.28231 19.2736 6.098 20.8524 8.23561 18.6731L17.2579 9.65078C18.173 8.73354 18.6869 7.49076 18.6869 6.1951C18.6869 4.89943 18.1729 3.65668 17.2578 2.73948Z" fill="#343434"/>
</svg>
