<svg width="44" height="44" viewBox="0 0 44 44" fill="none" xmlns="http://www.w3.org/2000/svg">
<rect width="44" height="44" fill="#395896"/>
<path d="M19.3121 23.4561C19.2281 23.4561 17.3801 23.4561 16.5401 23.4561C16.0921 23.4561 15.9521 23.2881 15.9521 22.8681C15.9521 21.7481 15.9521 20.6001 15.9521 19.4801C15.9521 19.0321 16.1201 18.8921 16.5401 18.8921H19.3121C19.3121 18.8081 19.3121 17.1841 19.3121 16.4281C19.3121 15.3081 19.5081 14.2441 20.0681 13.2641C20.6561 12.2561 21.4961 11.5841 22.5601 11.1921C23.2601 10.9401 23.9601 10.8281 24.7161 10.8281H27.4601C27.8521 10.8281 28.0201 10.9961 28.0201 11.3881V14.5801C28.0201 14.9721 27.8521 15.1401 27.4601 15.1401C26.7041 15.1401 25.9481 15.1401 25.1921 15.1681C24.4361 15.1681 24.0441 15.5321 24.0441 16.3161C24.0161 17.1561 24.0441 17.9681 24.0441 18.8361H27.2921C27.7401 18.8361 27.9081 19.0041 27.9081 19.4521V22.8401C27.9081 23.2881 27.7681 23.4281 27.2921 23.4281C26.2841 23.4281 24.1281 23.4281 24.0441 23.4281V32.5561C24.0441 33.0321 23.9041 33.2001 23.4001 33.2001C22.2241 33.2001 21.0761 33.2001 19.9001 33.2001C19.4801 33.2001 19.3121 33.0321 19.3121 32.6121C19.3121 29.6721 19.3121 23.5401 19.3121 23.4561Z" fill="white"/>
</svg>
