<svg width="35" height="35" viewBox="0 0 35 35" fill="none" xmlns="http://www.w3.org/2000/svg">
<rect width="35" height="35" fill="#F7F7F7"/>
<g clip-path="url(#clip0_151_3552)">
<path d="M17.1023 26.0271C16.8418 26.0271 16.5907 25.9327 16.395 25.7613C15.6559 25.115 14.9434 24.5077 14.3147 23.972L14.3115 23.9692C12.4683 22.3985 10.8766 21.042 9.76917 19.7058C8.53121 18.212 7.95459 16.7956 7.95459 15.2483C7.95459 13.745 8.47007 12.3581 9.40597 11.3429C10.353 10.3157 11.6526 9.75 13.0656 9.75C14.1216 9.75 15.0888 10.0839 15.9401 10.7423C16.3698 11.0746 16.7592 11.4814 17.1023 11.9558C17.4455 11.4814 17.8348 11.0746 18.2646 10.7423C19.1159 10.0839 20.0831 9.75 21.1392 9.75C22.552 9.75 23.8517 10.3157 24.7988 11.3429C25.7347 12.3581 26.25 13.745 26.25 15.2483C26.25 16.7956 25.6735 18.212 24.4356 19.7056C23.3281 21.042 21.7366 22.3983 19.8937 23.9689C19.2639 24.5055 18.5502 25.1138 17.8094 25.7616C17.6139 25.9327 17.3626 26.0271 17.1023 26.0271ZM13.0656 10.8217C11.9555 10.8217 10.9357 11.2648 10.1938 12.0693C9.44087 12.886 9.02617 14.015 9.02617 15.2483C9.02617 16.5497 9.50982 17.7135 10.5942 19.022C11.6424 20.2867 13.2014 21.6153 15.0065 23.1536L15.0098 23.1564C15.6409 23.6942 16.3562 24.3039 17.1008 24.9549C17.8498 24.3027 18.5662 23.692 19.1986 23.1533C21.0035 21.615 22.5624 20.2867 23.6105 19.022C24.6948 17.7135 25.1784 16.5497 25.1784 15.2483C25.1784 14.015 24.7637 12.886 24.0108 12.0693C23.2691 11.2648 22.2491 10.8217 21.1392 10.8217C20.326 10.8217 19.5793 11.0802 18.9201 11.59C18.3326 12.0445 17.9233 12.619 17.6834 13.021C17.56 13.2277 17.3428 13.3511 17.1023 13.3511C16.8618 13.3511 16.6446 13.2277 16.5212 13.021C16.2814 12.619 15.8722 12.0445 15.2845 11.59C14.6253 11.0802 13.8786 10.8217 13.0656 10.8217Z" fill="#303030"/>
</g>
<defs>
<clipPath id="clip0_151_3552">
<rect width="18.2955" height="18.2955" fill="white" transform="translate(7.95459 8.75)"/>
</clipPath>
</defs>
</svg>
