<svg width="28" height="24" viewBox="0 0 28 24" fill="none" xmlns="http://www.w3.org/2000/svg">
<path d="M24.7059 21.8825H27.1765C27.6313 21.8825 28 22.2512 28 22.706C28 23.1609 27.6313 23.5296 27.1765 23.5296H0.823539C0.368703 23.5296 0 23.1608 0 22.706C0 22.2512 0.368703 21.8825 0.823539 21.8825H3.2941V7.8825C3.2941 7.42766 3.6628 7.05896 4.11764 7.05896H11.5294C11.9842 7.05896 12.3529 7.42766 12.3529 7.8825V21.8825H15.647V1.29424C15.647 0.839406 16.0157 0.470703 16.4706 0.470703H23.8823C24.3371 0.470703 24.7058 0.839406 24.7058 1.29424V21.8825H24.7059ZM4.94118 8.70604V21.8825H10.7059V8.70604H4.94118ZM17.2941 2.11778V21.8825H23.0588V2.11778H17.2941Z" fill="#303030"/>
</svg>
